<?xml version="1.0" encoding="UTF-8" standalone="no"?>
<!-- Created with Inkscape (http://www.inkscape.org/) -->

<svg
   xmlns:dc="http://purl.org/dc/elements/1.1/"
   xmlns:cc="http://creativecommons.org/ns#"
   xmlns:rdf="http://www.w3.org/1999/02/22-rdf-syntax-ns#"
   xmlns:svg="http://www.w3.org/2000/svg"
   xmlns="http://www.w3.org/2000/svg"
   xmlns:sodipodi="http://sodipodi.sourceforge.net/DTD/sodipodi-0.dtd"
   xmlns:inkscape="http://www.inkscape.org/namespaces/inkscape"
   width="11.11117mm"
   height="11.430041mm"
   viewBox="0 0 11.11117 11.430041"
   version="1.1"
   id="svg4651"
   inkscape:version="0.92.5 (2060ec1f9f, 2020-04-08)"
   sodipodi:docname="eido_vertical.svg">
  <defs
     id="defs4645" />
  <sodipodi:namedview
     id="base"
     pagecolor="#ffffff"
     bordercolor="#666666"
     borderopacity="1.0"
     inkscape:pageopacity="0.0"
     inkscape:pageshadow="2"
     inkscape:zoom="5.6"
     inkscape:cx="68.447658"
     inkscape:cy="6.6043185"
     inkscape:document-units="mm"
     inkscape:current-layer="layer1"
     showgrid="false"
     fit-margin-top="1.5"
     fit-margin-left="2.5"
     fit-margin-right="2.5"
     fit-margin-bottom="1.5"
     inkscape:window-width="2560"
     inkscape:window-height="1370"
     inkscape:window-x="3760"
     inkscape:window-y="296"
     inkscape:window-maximized="1" />
  <metadata
     id="metadata4648">
    <rdf:RDF>
      <cc:Work
         rdf:about="">
        <dc:format>image/svg+xml</dc:format>
        <dc:type
           rdf:resource="http://purl.org/dc/dcmitype/StillImage" />
        <dc:title></dc:title>
      </cc:Work>
    </rdf:RDF>
  </metadata>
  <g
     inkscape:label="Layer 1"
     inkscape:groupmode="layer"
     id="layer1"
     transform="translate(178.66868,-73.570694)">
    <g
       transform="matrix(0.26458333,0,0,0.26458333,-193.14428,73.375903)"
       style="fill:#000000"
       id="g4643">
      <g
         id="text1175"
         style="font-style:normal;font-variant:normal;font-weight:normal;font-stretch:normal;font-size:10.66666698px;line-height:1;font-family:Arial;-inkscape-font-specification:Arial;font-variant-ligatures:normal;font-variant-position:normal;font-variant-caps:normal;font-variant-numeric:normal;font-variant-alternates:normal;font-feature-settings:normal;text-indent:0;text-align:center;text-decoration:none;text-decoration-line:none;text-decoration-style:solid;text-decoration-color:#000000;letter-spacing:0px;word-spacing:0px;text-transform:none;writing-mode:lr-tb;direction:ltr;text-orientation:mixed;dominant-baseline:auto;baseline-shift:baseline;text-anchor:middle;white-space:normal;shape-padding:0;opacity:1;vector-effect:none;fill:#000001;fill-opacity:1;stroke:none;stroke-width:1.06699991;stroke-linecap:butt;stroke-linejoin:miter;stroke-miterlimit:4;stroke-dasharray:none;stroke-dashoffset:0;stroke-opacity:1;marker:none"
         aria-label="eido">
        <path
           inkscape:connector-curvature="0"
           id="path1319"
           style="font-style:normal;font-variant:normal;font-weight:normal;font-stretch:normal;font-family:Comfortaa;-inkscape-font-specification:Comfortaa"
           d="m 66.954402,32.325749 q 0.789333,0 1.397333,0.373333 0.608,0.362667 0.938667,1.013333 0.341333,0.650667 0.341333,1.482667 0,0.170667 -0.106666,0.277334 -0.106667,0.096 -0.277334,0.096 h -4.309333 q 0.08533,0.874666 0.682667,1.418666 0.597333,0.544 1.493333,0.544 0.384,0 0.768,-0.128 0.394667,-0.138666 0.629333,-0.341333 0.138667,-0.106667 0.288,-0.106667 0.117334,0 0.234667,0.08533 0.138667,0.128 0.138667,0.288 0,0.138666 -0.117334,0.245333 -0.352,0.298667 -0.896,0.501333 -0.544,0.192 -1.045333,0.192 -0.853333,0 -1.525333,-0.373333 -0.672001,-0.384 -1.056001,-1.056 -0.373333,-0.682667 -0.373333,-1.536 0,-0.864 0.352,-1.536 0.362667,-0.682667 0.992,-1.056 0.64,-0.384 1.450667,-0.384 z m 0,0.736 q -0.810667,0 -1.344,0.501333 -0.533334,0.501333 -0.650667,1.322667 h 3.904 q -0.08533,-0.821334 -0.597333,-1.322667 -0.512,-0.501333 -1.312,-0.501333 z" />
        <path
           inkscape:connector-curvature="0"
           id="path1321"
           style="font-style:normal;font-variant:normal;font-weight:normal;font-stretch:normal;font-family:Comfortaa;-inkscape-font-specification:Comfortaa"
           d="m 71.597402,38.213749 q -0.181333,0 -0.298667,-0.117333 -0.117333,-0.117334 -0.117333,-0.298667 v -5.002667 q 0,-0.181333 0.117333,-0.298667 0.117334,-0.117333 0.298667,-0.117333 0.181333,0 0.288,0.117333 0.117333,0.117334 0.117333,0.298667 v 5.002667 q 0,0.181333 -0.117333,0.298667 -0.106667,0.117333 -0.288,0.117333 z m -0.01067,-6.944 q -0.245333,0 -0.416,-0.170667 -0.16,-0.170667 -0.16,-0.416 0,-0.256 0.170667,-0.416 0.170667,-0.16 0.416,-0.16 0.234667,0 0.405333,0.16 0.170667,0.16 0.170667,0.416 0,0.245333 -0.170667,0.416 -0.170666,0.170667 -0.416,0.170667 z" />
        <path
           inkscape:connector-curvature="0"
           id="path1323"
           style="font-style:normal;font-variant:normal;font-weight:normal;font-stretch:normal;font-family:Comfortaa;-inkscape-font-specification:Comfortaa"
           d="m 79.704735,32.688415 q 0.01067,0.032 0.01067,0.096 v 2.506667 q 0,0.832 -0.394667,1.514667 -0.384,0.682667 -1.066666,1.077333 -0.672,0.384 -1.504,0.384 -0.832,0 -1.514667,-0.384 -0.672,-0.394666 -1.066667,-1.077333 -0.384,-0.682667 -0.384,-1.514667 0,-0.832 0.373333,-1.504 0.384,-0.682667 1.034667,-1.066667 0.661334,-0.394666 1.472,-0.394666 0.693334,0 1.269334,0.298666 0.576,0.288 0.949333,0.8 v -3.125333 q 0,-0.181333 0.117333,-0.298667 0.117334,-0.117333 0.298667,-0.117333 0.181333,0 0.288,0.117333 0.117333,0.117334 0.117333,0.298667 z m -2.954666,4.832001 q 0.608,0 1.098666,-0.288 0.490667,-0.298667 0.768,-0.8 0.288,-0.512 0.288,-1.141334 0,-0.181333 -0.01067,-0.266666 -0.01067,-0.02133 -0.01067,-0.05333 -0.106667,-0.832 -0.704,-1.365333 -0.586667,-0.533334 -1.429333,-0.533334 -0.608,0 -1.109334,0.288 -0.490666,0.288 -0.778667,0.8 -0.277333,0.501334 -0.277333,1.130667 0,0.629334 0.277333,1.141334 0.288001,0.501333 0.778667,0.8 0.501334,0.288 1.109334,0.288 z" />
        <path
           inkscape:connector-curvature="0"
           id="path1325"
           style="font-style:normal;font-variant:normal;font-weight:normal;font-stretch:normal;font-family:Comfortaa;-inkscape-font-specification:Comfortaa"
           d="m 84.291736,38.267082 q -0.842666,0 -1.525333,-0.384 -0.672,-0.384 -1.056,-1.056 -0.384,-0.682666 -0.384,-1.525333 0,-0.842667 0.384,-1.525334 0.384,-0.682666 1.056,-1.066666 0.682667,-0.384 1.525333,-0.384 0.842667,0 1.514667,0.384 0.672,0.384 1.056,1.066666 0.394667,0.682667 0.394667,1.525334 0,0.842667 -0.384,1.525333 -0.384,0.672 -1.066667,1.056 -0.672,0.384 -1.514667,0.384 z m 0,-0.746666 q 0.618667,0 1.109334,-0.288 0.490667,-0.288 0.768,-0.789334 0.277333,-0.512 0.277333,-1.141333 0,-0.64 -0.277333,-1.141334 -0.277333,-0.512 -0.768,-0.8 -0.490667,-0.288 -1.109334,-0.288 -0.608,0 -1.109333,0.288 -0.490667,0.288 -0.778667,0.8 -0.277333,0.501334 -0.277333,1.141334 0,0.629333 0.277333,1.141333 0.288,0.501334 0.778667,0.789334 0.501333,0.288 1.109333,0.288 z" />
      </g>
      <g
         id="g1185"
         style="fill:#000000;fill-rule:evenodd;stroke:none;stroke-width:1"
         transform="matrix(0.34610624,0,0,0.34610624,65.735021,6.405648)">
        <g
           id="g1183"
           transform="translate(-986,-742)"
           style="fill:#000000">
          <g
             style="fill:#000000"
             id="g1181"
             transform="translate(986,742)">
            <path
               style="fill:#666666;fill-opacity:1"
               id="path1177"
               d="M 30,50 C 18.972,50 10,41.028 10,30 c 0,-0.33 0.009,-0.664 0.025,-1 0.185,-0.001 0.359,-0.036 0.538,-0.057 0.151,-0.017 0.307,-0.018 0.454,-0.048 0.177,-0.037 0.34,-0.104 0.51,-0.159 0.142,-0.046 0.29,-0.076 0.425,-0.134 0.16,-0.068 0.304,-0.163 0.455,-0.247 0.131,-0.073 0.27,-0.132 0.393,-0.215 0.14,-0.095 0.26,-0.214 0.39,-0.322 0.116,-0.097 0.241,-0.182 0.348,-0.289 0.12,-0.121 0.218,-0.262 0.325,-0.394 0.094,-0.116 0.2,-0.222 0.284,-0.346 0.1,-0.147 0.172,-0.312 0.255,-0.469 0.068,-0.127 0.149,-0.246 0.205,-0.379 0.08,-0.188 0.128,-0.391 0.184,-0.59 0.033,-0.117 0.083,-0.226 0.107,-0.346 C 14.965,24.68 15,24.344 15,24 15,23.702 14.964,23.411 14.911,23.124 14.898,23.047 14.884,22.97 14.867,22.893 14.808,22.64 14.734,22.393 14.637,22.154 14.596,22.053 14.547,21.958 14.5,21.86 14.429,21.712 14.351,21.568 14.265,21.428 14.191,21.305 14.116,21.185 14.032,21.07 13.914,20.908 13.786,20.753 13.649,20.606 13.555,20.505 13.457,20.411 13.355,20.319 13.252,20.224 13.143,20.137 13.031,20.052 12.945,19.985 12.869,19.908 12.778,19.847 16.374,13.748 22.883,10 30,10 41.028,10 50,18.972 50,30 50,41.028 41.028,50 30,50 M 52,30 C 52,17.869 42.131,8 30,8 22.072,8 14.841,12.234 10.918,19.093 10.62,19.037 10.315,19 10,19 7.243,19 5,21.243 5,24 5,26.073 6.269,27.854 8.07,28.611 8.041,29.076 8,29.544 8,30 8,42.131 17.869,52 30,52 42.131,52 52,42.131 52,30"
               inkscape:connector-curvature="0" />
            <path
               style="fill:#333333"
               id="path1179"
               d="m 43.2881,54.6436 c -4.071,2.198 -8.646,3.356 -13.288,3.356 -15.44,0 -28,-12.56 -28,-28 0,-15.439 12.56,-28 28,-28 5.296,0 10.454,1.492 14.922,4.314 l 0.26,0.247 c -0.115,0.462 -0.182,0.943 -0.182,1.439 0,3.309 2.691,6 6,6 0.263,0 0.521,-0.022 0.775,-0.055 0.069,-0.009 0.136,-0.02 0.204,-0.032 0.219,-0.036 0.434,-0.083 0.645,-0.142 0.029,-0.008 0.06,-0.011 0.089,-0.02 l 0.255,0.244 c 3.292,4.714 5.032,10.247 5.032,16.005 0,7.001 -2.574,13.645 -7.269,18.811 -0.235,-0.154 -0.484,-0.28 -0.74,-0.392 -0.053,-0.022 -0.107,-0.039 -0.161,-0.06 -0.225,-0.089 -0.456,-0.161 -0.693,-0.216 -0.077,-0.018 -0.152,-0.036 -0.23,-0.051 -0.297,-0.054 -0.599,-0.092 -0.907,-0.092 -2.757,0 -5,2.244 -5,5 0,0.303 0.034,0.603 0.091,0.901 0.03,0.166 0.082,0.323 0.128,0.483 0.026,0.086 0.039,0.175 0.069,0.26 m 16.712,-24.644 c 0,-6.187 -1.877,-12.131 -5.424,-17.193 1.468,-1.095 2.424,-2.839 2.424,-4.807 0,-3.308 -2.691,-6 -6,-6 -2.068,0 -3.894,1.052 -4.974,2.648 -4.797,-3.04 -10.337,-4.648 -16.026,-4.648 -16.542,0 -30,13.458 -30,30 0,16.542 13.458,30 30,30 5.005,0 9.929,-1.27 14.311,-3.654 0.915,1.009 2.223,1.654 3.689,1.654 2.757,0 5,-2.243 5,-5 0,-1.031 -0.315,-1.991 -0.852,-2.788 5.066,-5.542 7.852,-12.682 7.852,-20.212"
               inkscape:connector-curvature="0" />
          </g>
        </g>
      </g>
      <path
         inkscape:connector-curvature="0"
         style="fill:#cccccc;fill-opacity:1;stroke-width:0.61343825"
         d="m 80.358413,20.752564 c 1.011395,-1.011394 1.011407,-2.64836 0,-3.659767 L 76.23836,12.97275 c -0.611696,-0.611702 -1.45245,-0.851489 -2.245387,-0.723275 -0.0265,0.0037 -0.05257,0.0069 -0.07834,0.01116 -0.0072,0.0012 -0.01521,0.0043 -0.02239,0.0055 -0.40041,0.08094 -0.784723,0.255932 -1.117783,0.52741 -0.06806,0.05515 -0.133515,0.11394 -0.197257,0.177682 -1.010689,1.010689 -1.011407,2.651176 -1.3e-5,3.66257 l 4.120054,4.120054 c 1.012094,1.010707 2.650483,1.009277 3.661171,-0.0012 z m -0.306369,-0.30637 c -0.840208,0.840208 -2.206807,0.840221 -3.047028,0 l -2.060735,-2.060735 3.047015,-3.047015 2.060736,2.060735 c 0.84022,0.84022 0.840208,2.20682 1.2e-5,3.047015 z m -6.431195,-4.083646 c -0.06161,0.08021 -0.184939,0.08344 -0.263017,0.01393 -0.01,-0.0086 -1.112078,-1.024227 -0.549825,-2.418854 0.0086,-0.02435 0.02343,-0.04576 0.04061,-0.06295 0.05085,-0.05085 0.131227,-0.07063 0.201435,-0.04196 0.0967,0.03938 0.142214,0.147452 0.103524,0.24343 -0.466299,1.155374 0.444651,1.993356 0.454705,2.001981 0.07661,0.06945 0.08205,0.187742 0.01257,0.264416 z"
         id="path1187" />
      <ellipse
         style="color:#000000;clip-rule:nonzero;display:inline;overflow:visible;visibility:visible;opacity:1;isolation:auto;mix-blend-mode:normal;color-interpolation:sRGB;color-interpolation-filters:linearRGB;solid-color:#000000;solid-opacity:1;fill:none;fill-opacity:1;fill-rule:nonzero;stroke:none;stroke-width:1.22687662;stroke-linecap:butt;stroke-linejoin:miter;stroke-miterlimit:4;stroke-dasharray:3.68063, 1.22687667;stroke-dashoffset:0;stroke-opacity:1;marker:none;color-rendering:auto;image-rendering:auto;shape-rendering:auto;text-rendering:auto;enable-background:accumulate"
         id="ellipse1189"
         cx="69.173622"
         cy="14.731465"
         rx="1.4702333"
         ry="1.431504" />
      <circle
         r="1.431504"
         cy="24.742931"
         cx="82.341522"
         id="circle1191"
         style="color:#000000;clip-rule:nonzero;display:inline;overflow:visible;visibility:visible;opacity:1;isolation:auto;mix-blend-mode:normal;color-interpolation:sRGB;color-interpolation-filters:linearRGB;solid-color:#000000;solid-opacity:1;fill:none;fill-opacity:1;fill-rule:nonzero;stroke:none;stroke-width:1.22687662;stroke-linecap:butt;stroke-linejoin:miter;stroke-miterlimit:4;stroke-dasharray:3.68063, 1.22687667;stroke-dashoffset:0;stroke-opacity:1;marker:none;color-rendering:auto;image-rendering:auto;shape-rendering:auto;text-rendering:auto;enable-background:accumulate" />
      <circle
         style="color:#000000;clip-rule:nonzero;display:inline;overflow:visible;visibility:visible;opacity:1;isolation:auto;mix-blend-mode:normal;color-interpolation:sRGB;color-interpolation-filters:linearRGB;solid-color:#000000;solid-opacity:1;fill:none;fill-opacity:1;fill-rule:nonzero;stroke:none;stroke-width:1.22687662;stroke-linecap:butt;stroke-linejoin:miter;stroke-miterlimit:4;stroke-dasharray:3.68063, 1.22687667;stroke-dashoffset:0;stroke-opacity:1;marker:none;color-rendering:auto;image-rendering:auto;shape-rendering:auto;text-rendering:auto;enable-background:accumulate"
         id="circle1193"
         cx="83.351799"
         cy="9.2092485"
         r="1.7800664" />
      <g
         style="clip-rule:evenodd;fill:#00aa44;fill-opacity:1;fill-rule:evenodd;stroke:#000000;stroke-width:204.45423889;stroke-miterlimit:4;stroke-dasharray:none;image-rendering:optimizeQuality;shape-rendering:geometricPrecision;text-rendering:geometricPrecision"
         id="g1199"
         transform="matrix(0.00220857,0,0,0.00220857,68.563054,10.352346)">
        <g
           id="g1197"
           style="fill:#00aa44;fill-opacity:1;stroke:#000000;stroke-width:204.45423889;stroke-miterlimit:4;stroke-dasharray:none">
          <path
             id="path1195"
             d="M 2538,4078 5034,1582 c 215,-215 563,-215 778,0 215,215 215,563 0,778 L 2930,5242 c -1,1 -2,2 -3,3 -215,215 -563,215 -778,0 l -104,-104 v 0 L 1015,4111 c -215,-215 -215,-563 0,-778 215,-215 563,-215 778,0 z"
             class="fil0"
             inkscape:connector-curvature="0"
             style="fill:#008000;fill-opacity:1;stroke:#000000;stroke-width:204.45423889;stroke-miterlimit:4;stroke-dasharray:none" />
        </g>
      </g>
    </g>
  </g>
</svg>
