<?xml version="1.0" encoding="UTF-8" standalone="no"?>
<svg
   xmlns:dc="http://purl.org/dc/elements/1.1/"
   xmlns:cc="http://creativecommons.org/ns#"
   xmlns:rdf="http://www.w3.org/1999/02/22-rdf-syntax-ns#"
   xmlns:svg="http://www.w3.org/2000/svg"
   xmlns="http://www.w3.org/2000/svg"
   xmlns:sodipodi="http://sodipodi.sourceforge.net/DTD/sodipodi-0.dtd"
   xmlns:inkscape="http://www.inkscape.org/namespaces/inkscape"
   version="1.1"
   x="0px"
   y="0px"
   viewBox="0 0 100 100"
   enable-background="new 0 0 100 100"
   xml:space="preserve"
   id="svg54"
   sodipodi:docname="collection.svg"
   inkscape:version="0.92.5 (2060ec1f9f, 2020-04-08)"><metadata
     id="metadata60"><rdf:RDF><cc:Work
         rdf:about=""><dc:format>image/svg+xml</dc:format><dc:type
           rdf:resource="http://purl.org/dc/dcmitype/StillImage" /></cc:Work></rdf:RDF></metadata><defs
     id="defs58" /><sodipodi:namedview
     pagecolor="#ffffff"
     bordercolor="#666666"
     borderopacity="1"
     objecttolerance="10"
     gridtolerance="10"
     guidetolerance="10"
     inkscape:pageopacity="0"
     inkscape:pageshadow="2"
     inkscape:window-width="738"
     inkscape:window-height="480"
     id="namedview56"
     showgrid="false"
     inkscape:zoom="2.36"
     inkscape:cx="50"
     inkscape:cy="50"
     inkscape:window-x="0"
     inkscape:window-y="0"
     inkscape:window-maximized="0"
     inkscape:current-layer="svg54" /><g
     id="g52"
     style="fill:#aade87"><path
       fill-rule="evenodd"
       clip-rule="evenodd"
       d="M49.932,32.543c9.509,0,17.218,7.704,17.218,17.208   c0,9.504-7.709,17.208-17.218,17.208c-9.509,0-17.218-7.704-17.218-17.208C32.715,40.247,40.423,32.543,49.932,32.543z"
       id="path2"
       style="fill:#aade87" /><path
       fill-rule="evenodd"
       clip-rule="evenodd"
       d="M94.897,49.964c0,3.895-3.159,7.052-7.056,7.052s-7.056-3.157-7.056-7.052   c0-3.895,3.159-7.052,7.056-7.052S94.897,46.069,94.897,49.964z"
       id="path4"
       style="fill:#aade87" /><path
       fill-rule="evenodd"
       clip-rule="evenodd"
       d="M19.111,49.964c0,3.895-3.159,7.052-7.056,7.052s-7.056-3.157-7.056-7.052   c0-3.895,3.159-7.052,7.056-7.052S19.111,46.069,19.111,49.964z"
       id="path6"
       style="fill:#aade87" /><path
       fill-rule="evenodd"
       clip-rule="evenodd"
       d="M78.778,49.963c0,0.94-0.762,1.702-1.703,1.702c-0.941,0-1.703-0.762-1.703-1.702   c0-0.94,0.762-1.702,1.703-1.702C78.015,48.261,78.778,49.023,78.778,49.963z"
       id="path8"
       style="fill:#aade87" /><path
       fill-rule="evenodd"
       clip-rule="evenodd"
       d="M72.85,49.963c0,0.94-0.762,1.702-1.703,1.702c-0.94,0-1.703-0.762-1.703-1.702   c0-0.94,0.763-1.702,1.703-1.702C72.088,48.261,72.85,49.023,72.85,49.963z"
       id="path10"
       style="fill:#aade87" /><path
       fill-rule="evenodd"
       clip-rule="evenodd"
       d="M30.597,49.963c0,0.94-0.763,1.702-1.703,1.702s-1.703-0.762-1.703-1.702   c0-0.94,0.763-1.702,1.703-1.702S30.597,49.023,30.597,49.963z"
       id="path12"
       style="fill:#aade87" /><path
       fill-rule="evenodd"
       clip-rule="evenodd"
       d="M24.669,49.963c0,0.94-0.762,1.702-1.703,1.702c-0.941,0-1.703-0.762-1.703-1.702   c0-0.94,0.762-1.702,1.703-1.702C23.907,48.261,24.669,49.023,24.669,49.963z"
       id="path14"
       style="fill:#aade87" /><path
       fill-rule="evenodd"
       clip-rule="evenodd"
       d="M49.95,5.038c3.897,0,7.056,3.158,7.056,7.053c0,3.895-3.159,7.052-7.056,7.052   c-3.897,0-7.056-3.157-7.056-7.052C42.894,8.196,46.053,5.038,49.95,5.038z"
       id="path16"
       style="fill:#aade87" /><path
       fill-rule="evenodd"
       clip-rule="evenodd"
       d="M49.95,80.781c3.897,0,7.056,3.157,7.056,7.053c0,3.895-3.159,7.052-7.056,7.052   c-3.897,0-7.056-3.157-7.056-7.052C42.894,83.938,46.053,80.781,49.95,80.781z"
       id="path18"
       style="fill:#aade87" /><path
       fill-rule="evenodd"
       clip-rule="evenodd"
       d="M49.948,21.149c0.94,0,1.703,0.763,1.703,1.702c0,0.94-0.763,1.702-1.703,1.702   c-0.94,0-1.703-0.761-1.703-1.702C48.245,21.911,49.008,21.149,49.948,21.149z"
       id="path20"
       style="fill:#aade87" /><path
       fill-rule="evenodd"
       clip-rule="evenodd"
       d="M49.948,27.073c0.94,0,1.703,0.762,1.703,1.702c0,0.94-0.763,1.702-1.703,1.702   c-0.94,0-1.703-0.762-1.703-1.702C48.245,27.835,49.008,27.073,49.948,27.073z"
       id="path22"
       style="fill:#aade87" /><path
       fill-rule="evenodd"
       clip-rule="evenodd"
       d="M49.948,69.302c0.94,0,1.703,0.762,1.703,1.702s-0.763,1.702-1.703,1.702   c-0.94,0-1.703-0.762-1.703-1.702S49.008,69.302,49.948,69.302z"
       id="path24"
       style="fill:#aade87" /><path
       fill-rule="evenodd"
       clip-rule="evenodd"
       d="M49.948,75.226c0.94,0,1.703,0.762,1.703,1.702c0,0.94-0.763,1.702-1.703,1.702   c-0.94,0-1.703-0.762-1.703-1.702C48.245,75.988,49.008,75.226,49.948,75.226z"
       id="path26"
       style="fill:#aade87" /><path
       fill-rule="evenodd"
       clip-rule="evenodd"
       d="M81.733,18.199c2.756,2.753,2.756,7.219,0,9.973   c-2.756,2.755-7.224,2.755-9.979,0c-2.756-2.754-2.756-7.22,0-9.973C74.51,15.444,78.978,15.444,81.733,18.199z"
       id="path28"
       style="fill:#aade87" /><path
       fill-rule="evenodd"
       clip-rule="evenodd"
       d="M28.145,71.756c2.756,2.754,2.756,7.219,0,9.973   c-2.756,2.754-7.224,2.754-9.979,0c-2.756-2.754-2.756-7.22,0-9.973C20.921,69.002,25.389,69.002,28.145,71.756z"
       id="path30"
       style="fill:#aade87" /><path
       fill-rule="evenodd"
       clip-rule="evenodd"
       d="M70.334,29.589c0.665,0.665,0.665,1.742,0,2.406   c-0.665,0.665-1.743,0.665-2.408,0c-0.665-0.665-0.665-1.742,0-2.406C68.591,28.924,69.669,28.924,70.334,29.589z"
       id="path32"
       style="fill:#aade87" /><path
       fill-rule="evenodd"
       clip-rule="evenodd"
       d="M66.143,33.778c0.665,0.665,0.665,1.743,0,2.407   c-0.665,0.665-1.743,0.665-2.408,0c-0.665-0.664-0.665-1.742,0-2.407C64.399,33.112,65.478,33.112,66.143,33.778z"
       id="path34"
       style="fill:#aade87" /><path
       fill-rule="evenodd"
       clip-rule="evenodd"
       d="M36.265,63.638c0.665,0.665,0.665,1.743,0,2.407   c-0.665,0.665-1.743,0.665-2.408,0c-0.665-0.665-0.665-1.742,0-2.407C34.521,62.974,35.6,62.974,36.265,63.638z"
       id="path36"
       style="fill:#aade87" /><path
       fill-rule="evenodd"
       clip-rule="evenodd"
       d="M32.073,67.827c0.665,0.665,0.665,1.743,0,2.408   c-0.665,0.665-1.743,0.665-2.408,0c-0.665-0.665-0.665-1.743,0-2.408C30.33,67.163,31.409,67.163,32.073,67.827z"
       id="path38"
       style="fill:#aade87" /><path
       fill-rule="evenodd"
       clip-rule="evenodd"
       d="M18.166,18.195c2.756-2.754,7.224-2.754,9.979,0c2.756,2.754,2.756,7.219,0,9.974   c-2.756,2.754-7.224,2.754-9.979,0C15.41,25.414,15.41,20.949,18.166,18.195z"
       id="path40"
       style="fill:#aade87" /><path
       fill-rule="evenodd"
       clip-rule="evenodd"
       d="M71.754,71.753c2.756-2.754,7.223-2.754,9.979,0c2.756,2.754,2.756,7.219,0,9.974   c-2.756,2.753-7.224,2.753-9.979,0C68.998,78.972,68.998,74.507,71.754,71.753z"
       id="path42"
       style="fill:#aade87" /><path
       fill-rule="evenodd"
       clip-rule="evenodd"
       d="M29.563,29.588c0.665-0.665,1.743-0.665,2.408,0c0.665,0.665,0.665,1.742,0,2.406   c-0.665,0.665-1.744,0.665-2.408,0C28.897,31.33,28.897,30.253,29.563,29.588z"
       id="path44"
       style="fill:#aade87" /><path
       fill-rule="evenodd"
       clip-rule="evenodd"
       d="M33.754,33.776c0.665-0.665,1.743-0.665,2.408,0c0.665,0.665,0.665,1.743,0,2.407   c-0.665,0.665-1.743,0.665-2.408,0C33.089,35.519,33.089,34.441,33.754,33.776z"
       id="path46"
       style="fill:#aade87" /><path
       fill-rule="evenodd"
       clip-rule="evenodd"
       d="M63.632,63.638c0.665-0.665,1.743-0.665,2.408,0c0.665,0.664,0.665,1.741,0,2.407   c-0.665,0.665-1.743,0.665-2.408,0C62.967,65.379,62.967,64.302,63.632,63.638z"
       id="path48"
       style="fill:#aade87" /><path
       fill-rule="evenodd"
       clip-rule="evenodd"
       d="M67.823,67.826c0.665-0.665,1.743-0.665,2.408,0c0.665,0.665,0.665,1.743,0,2.408   c-0.665,0.665-1.743,0.665-2.408,0C67.158,69.569,67.158,68.491,67.823,67.826z"
       id="path50"
       style="fill:#aade87" /></g></svg>