<?xml version="1.0" encoding="UTF-8" standalone="no"?>
<!-- Created with Inkscape (http://www.inkscape.org/) -->

<svg
   width="34mm"
   height="16mm"
   viewBox="0 0 34 16"
   version="1.1"
   id="svg1"
   inkscape:version="1.2.2 (b0a8486541, 2022-12-01)"
   xml:space="preserve"
   sodipodi:docname="refget_logo.svg"
   xmlns:inkscape="http://www.inkscape.org/namespaces/inkscape"
   xmlns:sodipodi="http://sodipodi.sourceforge.net/DTD/sodipodi-0.dtd"
   xmlns="http://www.w3.org/2000/svg"
   xmlns:svg="http://www.w3.org/2000/svg"><sodipodi:namedview
     id="namedview1"
     pagecolor="#cccccc"
     bordercolor="#eeeeee"
     borderopacity="1"
     inkscape:showpageshadow="0"
     inkscape:pageopacity="0"
     inkscape:pagecheckerboard="0"
     inkscape:deskcolor="#676767"
     inkscape:document-units="mm"
     inkscape:zoom="5.6568542"
     inkscape:cx="67.617086"
     inkscape:cy="13.700194"
     inkscape:window-width="2560"
     inkscape:window-height="1403"
     inkscape:window-x="0"
     inkscape:window-y="0"
     inkscape:window-maximized="1"
     inkscape:current-layer="layer1"
     showgrid="false" /><defs
     id="defs1" /><g
     inkscape:label="Layer 1"
     inkscape:groupmode="layer"
     id="layer1"><path
       d="m 6.958691,8.9373206 v 2.0503474 c 0,0.219106 0.1778251,0.396931 0.3969311,0.396931 0.2191059,0 0.396931,-0.177825 0.396931,-0.396931 V 8.9373206 c 0,-0.2191059 -0.1778251,-0.396931 -0.396931,-0.396931 -0.219106,0 -0.3969311,0.1776267 -0.3969311,0.396931 z"
       id="path3"
       style="fill:#666666;stroke-width:0.264582" /><path
       d="m 4.5312594,9.8431172 v 2.2414698 c 0,0.219106 0.1778251,0.396931 0.396931,0.396931 0.2191059,0 0.396931,-0.177825 0.396931,-0.396931 V 9.8431172 c 0,-0.2191059 -0.1778251,-0.396931 -0.396931,-0.396931 -0.2191059,0 -0.396931,0.1778251 -0.396931,0.396931 z"
       id="path4"
       style="fill:#666666;stroke-width:0.264582" /><path
       id="path5"
       style="fill:#1a1a1a;stroke:#ffffff;stroke-width:0.1;stroke-dasharray:none;paint-order:stroke fill markers"
       d="M 10.601937,0.48214111 C 10.313335,0.48199454 10.016935,0.53124474 9.7642619,0.67747803 9.508331,0.82351186 9.3212639,1.0692757 9.2113241,1.3394531 9.0840154,1.6523454 9.048569,1.9942429 9.0511271,2.3295736 V 8.224821 c -0.00774,0.040275 -0.00407,0.081169 0,0.1214396 0.010677,0.023454 0.017429,0.059046 0.039791,0.079582 0.090931,0.113732 0.1831819,0.2267627 0.2733683,0.3410644 0.079822,0.1089042 0.1580823,0.2183283 0.2387451,0.3265951 0.043832,0.044706 0.083721,0.092393 0.1193726,0.1441772 0.5797209,0.7719147 1.2643479,1.4703287 2.0572389,2.0241657 0.830859,0.583983 1.779044,1.001013 2.772957,1.211295 0.564485,0.120106 1.142252,0.177927 1.719275,0.1757 v 0.0016 c 0.0064,-2.83e-4 0.01268,-7.35e-4 0.01912,-10e-4 0.0031,-1.9e-5 0.0062,2.3e-5 0.0093,0 0.0021,-1.15e-4 0.0041,-8.76e-4 0.0062,-10e-4 3.122341,-0.151818 5.136534,-2.279998 6.049243,-3.5165813 0.01101,-0.011972 0.02087,-0.024833 0.02997,-0.038241 l 0.04134,-0.058911 c 0.06786,-0.094244 0.128209,-0.1824377 0.182418,-0.2630331 0.352961,-0.486017 0.898336,-1.1353623 1.631425,-1.7270264 v 1.1632365 c 0,0.2191057 0.177769,0.396875 0.396875,0.396875 0.219105,0 0.397391,-0.1777693 0.397391,-0.396875 V 6.4828084 c 0.379791,-0.2339917 0.796964,-0.440755 1.250053,-0.6040975 v 1.4500407 c 0,0.2191057 0.17777,0.396875 0.396875,0.396875 0.219106,0 0.396875,-0.1777693 0.396875,-0.396875 V 5.648234 c 0.331169,-0.071765 0.677977,-0.1194479 1.041797,-0.1353922 0.219087,-0.00958 0.387829,-0.1997733 0.379305,-0.4139282 -0.0096,-0.2190874 -0.195357,-0.3890263 -0.414445,-0.379305 -3.143092,0.1377256 -5.173992,2.2995148 -6.088517,3.5444865 -0.0091,0.010535 -0.01718,0.021063 -0.02532,0.032556 l -0.02739,0.039274 c -0.06671,0.092472 -0.126439,0.1791176 -0.179834,0.2588989 -0.46449,0.6398637 -1.257002,1.556295 -2.372465,2.256193 V 9.4753906 c 0,-0.2191057 -0.177769,-0.396875 -0.396875,-0.396875 -0.219106,0 -0.396875,0.1775708 -0.396875,0.396875 v 1.6800004 c 0,0.04091 0.0061,0.08017 0.01757,0.117306 -0.345047,0.159676 -0.715716,0.292338 -1.109493,0.392741 v -1.396814 c 0,-0.219106 -0.177769,-0.3968751 -0.396875,-0.3968751 -0.219105,0 -0.396875,0.1775701 -0.396875,0.3968751 v 1.544608 c -0.125555,0.01512 -0.251065,0.03061 -0.380855,0.03824 -0.05895,-1.14e-4 -0.117566,0.01145 -0.176734,0.0088 -0.210662,0.0072 -0.421521,0.0035 -0.632003,-0.0098 v -1.581815 c 0,-0.219106 -0.177769,-0.3968751 -0.396875,-0.3968751 -0.219105,0 -0.396875,0.1775701 -0.396875,0.3968751 v 1.48053 C 14.33707,11.674084 13.951628,11.563084 13.5816,11.411707 12.721226,11.063432 11.950609,10.515752 11.297502,9.8598633 10.893379,9.4571195 10.535958,9.0110143 10.200411,8.5503825 10.116596,8.4385905 10.036934,8.3229767 9.9425456,8.2196533 9.9272446,8.2014873 9.9196705,8.1815212 9.9229085,8.1581584 V 3.7759969 H 11.2913 V 3.0261719 H 9.9229085 c 3.542e-4,-0.2673711 -8.283e-4,-0.5346536 5.168e-4,-0.8020183 0.00432,-0.1649001 0.017574,-0.3311632 0.058394,-0.4914428 0.037154,-0.1392042 0.1042857,-0.2766706 0.2201417,-0.3669027 0.109498,-0.089551 0.250176,-0.1317528 0.389641,-0.1410767 0.145962,-0.010779 0.293704,0.00445 0.435115,0.041858 0.09531,0.020675 0.187727,0.053499 0.274919,0.097152 0.06081,-0.2297873 0.121612,-0.45957617 0.182418,-0.68936356 -0.138479,-0.0676035 -0.286557,-0.11369516 -0.43615,-0.14934489 -0.146268,-0.0318011 -0.296518,-0.0427631 -0.445967,-0.0428918 z M 6.1117716,2.894397 C 5.8358377,2.8930398 5.5569287,2.9591375 5.3200887,3.1031698 5.0793949,3.2481994 4.8845921,3.4617479 4.7407959,3.7015828 c -0.1809155,0.3088 -0.2748303,0.6603786 -0.3317627,1.0113078 -0.064439,0.410724 -0.079455,0.8276924 -0.067696,1.2428182 0.012666,0.3535284 0.050526,0.7078957 0.1364258,1.0516154 0.067841,0.261678 0.1695667,0.5173014 0.3229777,0.7410401 0.1830437,0.2611669 0.4384228,0.4750017 0.7353556,0.5942789 0.3096527,0.1230815 0.6486058,0.1502567 0.9787516,0.1317749 0.1936242,-0.011421 0.387144,-0.045324 0.5694743,-0.1126546 0.1452086,-0.049361 0.2927354,-0.0994 0.4221965,-0.1834513 0.00819,-0.00883 -0.0038,-0.025579 -0.00413,-0.037724 l -0.154,-0.6645587 C 7.2242848,7.5406722 7.0926255,7.5889333 6.9608154,7.6351929 6.7387789,7.704008 6.5023606,7.7222121 6.2714518,7.7003052 6.0883572,7.6817581 5.9042282,7.6256066 5.7583049,7.5101359 5.6411431,7.4200026 5.5413546,7.3055901 5.4730509,7.1742391 5.3540508,6.9413238 5.2964308,6.6830068 5.2647949,6.4249308 5.2447091,6.2659025 5.2338845,6.1055859 5.2296549,5.9453735 h 2.5243938 c 0.014412,-0.1645634 0.0087,-0.3295852 0.00982,-0.4945434 C 7.7612157,4.9985504 7.7247258,4.5421553 7.60212,4.1051758 7.5378294,3.8816271 7.4517385,3.6615841 7.323584,3.4664551 7.1936814,3.2700281 7.0068237,3.1120073 6.7897664,3.0199707 6.5767769,2.92795 6.3424854,2.8943833 6.1117716,2.894397 Z M 2.9186849,2.9248861 C 2.6235469,2.9243877 2.327451,2.9576972 2.0422526,3.0349569 1.8247237,3.0898792 1.6109916,3.1616718 1.4086995,3.2592326 V 8.3478109 H 2.280481 V 3.806486 C 2.6037495,3.6745104 2.9639004,3.6467202 3.3072917,3.7000326 3.4453998,3.7223014 3.5811196,3.7606571 3.7093343,3.8168213 L 3.861263,3.0664795 C 3.6527575,2.9856284 3.4296423,2.9514333 3.2075562,2.9357381 3.1113852,2.928582 3.0151221,2.9248853 2.9186849,2.9248861 Z m 3.1930867,0.7095174 c 0.1456187,-0.00158 0.2966353,0.041032 0.4051433,0.1415934 0.1115283,0.1001246 0.1714733,0.242853 0.2123901,0.3839559 0.088381,0.3030718 0.1132715,0.6199631 0.1209229,0.9343099 9.851e-4,0.047169 0.00155,0.094414 0.00155,0.1415934 H 5.2399902 C 5.2602366,4.8901743 5.3034456,4.5419138 5.4167236,4.2131795 5.4709612,4.0530491 5.5499943,3.895005 5.6807902,3.7837484 5.7988987,3.6807452 5.9565194,3.632812 6.1117716,3.6344035 Z" /><path
       d="m 12.741182,6.2594255 v 1.6798121 c 0,0.2191059 0.177825,0.396931 0.396931,0.396931 0.219106,0 0.396931,-0.1778251 0.396931,-0.396931 V 6.2594255 c 0,-0.2191059 -0.177825,-0.396931 -0.396931,-0.396931 -0.219106,0 -0.396931,0.1776266 -0.396931,0.396931 z"
       id="path10"
       style="fill:#666666;stroke-width:0.264582" /><path
       d="m 14.72941,5.4661589 v 1.6796136 c 0,0.2191059 0.177825,0.396931 0.396931,0.396931 0.219106,0 0.396931,-0.1778251 0.396931,-0.396931 V 5.4661589 c 0,-0.2191059 -0.177825,-0.396931 -0.396931,-0.396931 -0.219106,0 -0.396931,0.1776266 -0.396931,0.396931 z"
       id="path11"
       style="fill:#666666;stroke-width:0.264582" /><path
       d="m 3.4934811,12.260428 c 0,0.0057 2.012e-4,0.01197 3.975e-4,0.01772 0.00958,0.219088 0.1949043,0.388803 0.4139921,0.379082 3.2155382,-0.141128 5.2478251,-2.372457 6.1242483,-3.5936163 0.2721,-0.3431657 2.827736,-3.4296839 6.204824,-3.2798422 3.088324,0.1408866 3.925335,1.2283856 4.503463,1.9898964 0.02059,0.029212 0.04502,0.062302 0.07202,0.099032 L 20.916247,8.01895 c 0.01868,0.02586 0.03927,0.049037 0.06249,0.069246 0.493357,0.4933569 1.002091,0.01293 0.51879,-0.6241727 -0.02059,-0.028733 -0.04406,-0.061345 -0.07087,-0.097452 L 21.31829,7.2139525 C 21.29914,7.1871355 21.27759,7.1635265 21.25378,7.1431265 20.489693,6.1918781 19.498277,5.1377475 16.272419,4.9906833 13.11007,4.8503713 10.688985,7.12796 9.7490526,8.181018 9.6847389,8.2083141 9.626986,8.2532331 9.58336,8.3159665 l -0.2266541,0.325064 5.986e-4,3.974e-4 C 8.533271,9.774071 6.7063998,11.739875 3.8727065,11.864312 3.65994,11.873411 3.4934332,12.049256 3.4934332,12.260251 Z"
       id="path1"
       style="fill:#666666;stroke-width:0.264583"
       sodipodi:nodetypes="sccccccccccccccccccss" /><path
       sodipodi:type="star"
       style="fill:#666666;fill-opacity:1;stroke-width:0.145162;-inkscape-stroke:none"
       id="path13"
       inkscape:flatsided="false"
       sodipodi:sides="3"
       sodipodi:cx="18.576635"
       sodipodi:cy="7.1772952"
       sodipodi:r1="1.9750159"
       sodipodi:r2="0.98750764"
       sodipodi:arg1="0.52359878"
       sodipodi:arg2="1.5707963"
       inkscape:rounded="0"
       inkscape:randomized="0"
       d="m 20.287049,8.1648032 -1.710414,-4e-7 -1.710414,3e-7 0.855208,-1.4812617 0.855206,-1.4812621 0.855207,1.4812621 z"
       inkscape:transform-center-y="-0.32782007"
       transform="matrix(1.3240145,0.38109764,-0.38109764,1.3240145,-1.1384544,-9.3496972)"
       inkscape:transform-center-x="0.37633718" /><g
       aria-label="get"
       id="text2"
       style="font-stretch:condensed;font-size:10.1363px;font-family:Ubuntu;-inkscape-font-specification:'Ubuntu Condensed';text-align:center;letter-spacing:0px;word-spacing:0px;text-anchor:middle;fill:#666666;stroke-width:0.2"><path
         d="m 23.287904,15.325851 q -0.35477,0 -0.658859,-0.07095 -0.304089,-0.06082 -0.567633,-0.192589 l 0.152044,-0.587906 q 0.222999,0.121636 0.476406,0.182454 0.253408,0.06082 0.516952,0.06082 0.395315,0 0.648723,-0.141909 0.263544,-0.131772 0.395316,-0.435861 0.131772,-0.304089 0.131772,-0.810904 v -0.375043 q -0.141909,0.09123 -0.364907,0.162181 -0.212863,0.06082 -0.476406,0.06082 -0.516952,0 -0.922404,-0.253408 -0.405452,-0.263543 -0.638587,-0.831176 -0.222998,-0.567633 -0.222998,-1.4799 0,-0.8007677 0.19259,-1.3785368 0.202726,-0.5879054 0.638586,-0.9021307 0.435861,-0.3142253 1.12513,-0.3142253 0.385179,0 0.699405,0.070954 0.324361,0.060818 0.668995,0.1824534 V 13.29859 q 0,1.013631 -0.445997,1.520446 -0.445997,0.506815 -1.348128,0.506815 z m 0.354771,-2.757074 q 0.233135,0 0.425724,-0.06082 0.202726,-0.06082 0.314226,-0.162181 V 8.7575281 q -0.121636,-0.060818 -0.293953,-0.091227 -0.172317,-0.040545 -0.375043,-0.040545 -0.375043,0 -0.648723,0.1824534 -0.273681,0.1723171 -0.425725,0.608178 -0.152045,0.4257246 -0.152045,1.1960834 0,0.618314 0.101363,1.01363 0.101363,0.385179 0.273681,0.587905 0.172317,0.202726 0.375043,0.283817 0.202726,0.07095 0.405452,0.07095 z"
         id="path8242" /><path
         d="m 28.366184,13.531725 q -0.62845,0 -1.074448,-0.324361 -0.445997,-0.324362 -0.679132,-0.93254 -0.233135,-0.618314 -0.233135,-1.490036 0,-0.8919943 0.212863,-1.5103086 0.212862,-0.6183143 0.598041,-0.9426759 0.395316,-0.3344979 0.942676,-0.3344979 0.496679,0 0.85145,0.2838164 0.364906,0.2838164 0.557496,0.8311766 0.19259,0.5473602 0.19259,1.3481274 0,0.101363 -0.01014,0.233135 0,0.131772 -0.01014,0.27368 h -2.615165 q 0,0.912267 0.334498,1.429219 0.344634,0.516951 1.044039,0.516951 0.253407,0 0.506815,-0.05068 0.253407,-0.05068 0.456133,-0.141909 l 0.101363,0.547361 q -0.283816,0.131771 -0.577769,0.192589 -0.283816,0.07095 -0.598042,0.07095 z m -1.267037,-3.091571 h 1.946169 Q 29.055453,9.801567 28.943953,9.396115 28.84259,8.9805267 28.629728,8.787937 28.427002,8.585211 28.112777,8.585211 q -0.324362,0 -0.557497,0.2229986 -0.222998,0.2229986 -0.344634,0.6385869 -0.111499,0.4155883 -0.111499,0.9933575 z"
         id="path8244" /><path
         d="m 32.359895,13.49118 q -0.415588,0 -0.729814,-0.162181 -0.314225,-0.172317 -0.486542,-0.537224 -0.172317,-0.375043 -0.172317,-0.983221 V 6.6491776 l 0.699405,-0.1317719 v 1.6116718 h 1.3684 v 0.5980417 h -1.3684 v 3.1017078 q 0,0.35477 0.08109,0.587905 0.09123,0.233135 0.27368,0.344635 0.182453,0.101363 0.445997,0.101363 0.162181,0 0.314226,-0.02027 0.152044,-0.03041 0.304089,-0.101363 l 0.111499,0.557496 q -0.162181,0.09123 -0.38518,0.141909 -0.222998,0.05068 -0.456133,0.05068 z"
         id="path8246" /></g></g></svg>
