<?xml version="1.0" encoding="UTF-8" standalone="no"?>
<!-- Created with Inkscape (http://www.inkscape.org/) -->

<svg
   width="25.106173mm"
   height="25.850101mm"
   viewBox="0 0 25.106173 25.850102"
   version="1.1"
   id="svg5"
   inkscape:version="1.3 (1:1.3+202307231459+0e150ed6c4)"
   sodipodi:docname="seqcol_logo.svg"
   xml:space="preserve"
   xmlns:inkscape="http://www.inkscape.org/namespaces/inkscape"
   xmlns:sodipodi="http://sodipodi.sourceforge.net/DTD/sodipodi-0.dtd"
   xmlns="http://www.w3.org/2000/svg"
   xmlns:svg="http://www.w3.org/2000/svg"><sodipodi:namedview
     id="namedview7"
     pagecolor="#ffffff"
     bordercolor="#666666"
     borderopacity="1.0"
     inkscape:pageshadow="2"
     inkscape:pageopacity="0"
     inkscape:pagecheckerboard="0"
     inkscape:document-units="mm"
     showgrid="false"
     inkscape:zoom="2.4699654"
     inkscape:cx="244.9427"
     inkscape:cy="79.55577"
     inkscape:window-width="2488"
     inkscape:window-height="1343"
     inkscape:window-x="1272"
     inkscape:window-y="27"
     inkscape:window-maximized="1"
     inkscape:current-layer="layer1"
     inkscape:snap-global="false"
     inkscape:showpageshadow="2"
     inkscape:deskcolor="#eeeeee"><inkscape:page
       x="0"
       y="0"
       width="25.106173"
       height="25.850101"
       id="page4"
       margin="4"
       bleed="0" /></sodipodi:namedview><defs
     id="defs2" /><g
     inkscape:label="Layer 1"
     inkscape:groupmode="layer"
     id="layer1"
     transform="translate(-7.1425564,-2.3515459)"><g
       id="g1768"
       transform="matrix(1.7949691,0,0,1.7949691,-27.135218,-11.341666)" /><g
       id="g4"
       transform="translate(-5.8775965,-5.1242765)"><path
         style="color:#000000;text-indent:0;text-transform:none;direction:ltr;baseline-shift:baseline;fill:#3333cc;fill-opacity:1;stroke-width:0.166773;enable-background:accumulate"
         d="M 32.906397,8.8365113 A 0.33357198,0.33358032 0 0 0 32.572858,8.5342326 c -1.031268,0.00252 -1.85482,0.5054766 -2.485906,1.2091084 -0.631084,0.703632 -1.09553,1.608382 -1.485287,2.491177 a 0.33357198,0.33358032 0 0 0 -0.0052,0.0104 c -0.26457,0.649733 -0.602863,1.302863 -1.026675,1.824085 V 10.16025 c 0.126048,0.194657 0.247395,0.418542 0.364812,0.677518 a 0.33357196,0.3335803 0 0 0 0.641019,-0.156352 0.33357196,0.3335803 0 0 0 -0.03127,-0.114657 C 28.27135,9.9646986 27.962998,9.4510215 27.512433,9.0866432 27.061867,8.7222712 26.475257,8.5315916 25.735289,8.5342074 c -1.022705,0.00378 -1.838644,0.4688421 -2.449419,1.1152972 -0.608072,0.6436004 -1.033395,1.4635714 -1.355001,2.2514454 -0.0016,0.0038 -0.0037,0.0069 -0.0052,0.0104 -0.376909,0.852395 -0.819192,1.694521 -1.365425,2.303554 -0.05215,0.05818 -0.107736,0.113282 -0.161553,0.166778 V 9.7589227 c 0.200677,0.2076795 0.371636,0.4907213 0.521149,0.8911983 a 0.33357196,0.3335803 0 1 0 0.625401,-0.229312 C 21.29236,9.7433852 20.94327,9.245441 20.440415,8.9406914 19.937576,8.6359419 19.318663,8.5322471 18.564263,8.5341822 A 0.33357196,0.3335803 0 0 0 18.230716,8.8677313 V 15.53867 a 0.33357196,0.3335803 0 0 0 0.33875,0.333549 c 1.031294,-0.0025 1.854821,-0.505477 2.485909,-1.209109 0.631088,-0.703632 1.095535,-1.608381 1.485285,-2.491183 a 0.33357196,0.3335803 0 0 0 0.0052,-0.0104 c 0.26457,-0.649727 0.59765,-1.302857 1.021455,-1.824085 v 3.908759 c -0.126048,-0.194664 -0.242172,-0.418542 -0.359597,-0.677518 a 0.33363406,0.33364239 0 0 0 -0.60974,0.271002 c 0.272957,0.602061 0.581322,1.115745 1.031877,1.480117 0.450555,0.364378 1.037181,0.555051 1.777138,0.552436 1.02271,-0.0038 1.838656,-0.468843 2.449432,-1.115298 0.60808,-0.643599 1.033389,-1.46357 1.355002,-2.251439 0.0015,-0.0038 0.0037,-0.0069 0.0052,-0.0104 0.376929,-0.852395 0.819183,-1.694522 1.365422,-2.303554 0.05191,-0.05786 0.102766,-0.113604 0.156347,-0.166778 v 4.622753 C 30.536172,14.439849 30.366761,14.156808 30.21724,13.756331 a 0.33357198,0.33358032 0 1 0 -0.625383,0.229312 c 0.25292,0.677423 0.60721,1.175367 1.110057,1.480117 0.502849,0.304749 1.121764,0.408444 1.876155,0.406509 A 0.33357198,0.33358032 0 0 0 32.906397,15.53872 V 8.8677817 a 0.33357198,0.33358032 0 0 0 0,-0.031264 z m -0.667078,0.4065093 v 5.9360924 c -0.318387,-0.01853 -0.599989,-0.06007 -0.833845,-0.130288 V 9.5348736 a 0.33357198,0.33358032 0 0 0 0,-0.015632 c 0.25501,-0.1390497 0.533181,-0.2338884 0.833845,-0.276221 z M 26.902701,9.4723328 V 14.70485 a 0.33357198,0.33358032 0 0 0 0,0.005 c -0.295723,0.215886 -0.624599,0.369541 -1.000611,0.442992 V 9.2063483 c 0.426698,0.017397 0.74079,0.1074389 1.000611,0.2657954 z M 25.235013,9.2534461 v 5.9465179 c -0.428258,-0.01765 -0.740275,-0.111283 -1.000625,-0.271008 V 9.701645 a 0.33357198,0.33358032 0 0 0 0,-0.00504 c 0.29479,-0.2151992 0.626085,-0.369257 1.000625,-0.4429861 z m -5.503392,0.1042306 v 5.5139513 a 0.33357198,0.33358032 0 0 0 0,0.02086 c -0.256147,0.140556 -0.531441,0.23438 -0.833851,0.276215 V 9.2274074 c 0.32149,0.018468 0.597933,0.059188 0.833851,0.1302882 z"
         fill="#000000"
         fill-opacity="1"
         stroke="none"
         marker="none"
         visibility="visible"
         display="inline"
         overflow="visible"
         id="path1" /><path
         style="color:#000000;font-variation-settings:normal;text-indent:0;text-transform:none;direction:ltr;baseline-shift:baseline;opacity:1;vector-effect:none;fill:#6666cc;fill-opacity:1;stroke:none;stroke-width:0.166773;stroke-linecap:butt;stroke-linejoin:miter;stroke-miterlimit:4;stroke-dasharray:none;stroke-dashoffset:0;stroke-opacity:1;-inkscape-stroke:none;enable-background:accumulate;stop-color:#000000;stop-opacity:1"
         d="m 32.906397,17.091018 a 0.33357198,0.33358032 0 0 0 -0.333539,-0.302279 c -1.031268,0.0025 -1.85482,0.505476 -2.485906,1.209108 -0.631084,0.703632 -1.09553,1.608382 -1.485287,2.491177 a 0.33357198,0.33358032 0 0 0 -0.0052,0.0104 c -0.26457,0.649733 -0.602863,1.302863 -1.026675,1.824085 v -3.908752 c 0.126048,0.194657 0.247395,0.418542 0.364812,0.677517 a 0.33357196,0.3335803 0 0 0 0.641019,-0.156352 0.33357196,0.3335803 0 0 0 -0.03127,-0.114656 c -0.272969,-0.602061 -0.581321,-1.115738 -1.031886,-1.480117 -0.450566,-0.364372 -1.037176,-0.555051 -1.777144,-0.552435 -1.022705,0.0038 -1.838644,0.468842 -2.449419,1.115297 -0.608072,0.643599 -1.033395,1.46357 -1.355001,2.251445 -0.0016,0.0038 -0.0037,0.0069 -0.0052,0.0104 -0.376909,0.852395 -0.819192,1.694522 -1.365425,2.303555 -0.05215,0.05818 -0.107736,0.113282 -0.161553,0.166777 v -4.622759 c 0.200677,0.207679 0.371636,0.49072 0.521149,0.891197 a 0.33357196,0.3335803 0 1 0 0.625401,-0.229312 c -0.252913,-0.677423 -0.602003,-1.175367 -1.104858,-1.480116 -0.502839,-0.30475 -1.121752,-0.408445 -1.876152,-0.40651 a 0.33357196,0.3335803 0 0 0 -0.333547,0.33355 v 6.670937 a 0.33357196,0.3335803 0 0 0 0.33875,0.333549 c 1.031294,-0.0025 1.854821,-0.505476 2.485909,-1.209108 0.631088,-0.703632 1.095535,-1.608382 1.485285,-2.491183 a 0.33357196,0.3335803 0 0 0 0.0052,-0.0104 c 0.26457,-0.649726 0.59765,-1.302856 1.021455,-1.824085 v 3.908759 C 23.441267,22.306044 23.325143,22.082165 23.207718,21.82319 a 0.33363406,0.33364239 0 0 0 -0.60974,0.271002 c 0.272957,0.602061 0.581322,1.115744 1.031877,1.480116 0.450555,0.364379 1.037181,0.555052 1.777138,0.552436 1.02271,-0.0038 1.838656,-0.468842 2.449432,-1.115297 0.60808,-0.6436 1.033389,-1.463571 1.355002,-2.251439 0.0015,-0.0038 0.0037,-0.0069 0.0052,-0.0104 0.376929,-0.852395 0.819183,-1.694522 1.365422,-2.303555 0.05191,-0.05786 0.102766,-0.113603 0.156347,-0.166777 v 4.622753 C 30.536172,22.694355 30.366761,22.411314 30.21724,22.010837 a 0.33357198,0.33358032 0 1 0 -0.625383,0.229312 c 0.25292,0.677423 0.60721,1.175367 1.110057,1.480116 0.502849,0.30475 1.121764,0.408445 1.876155,0.40651 a 0.33357198,0.33358032 0 0 0 0.328328,-0.333549 v -6.670938 a 0.33357198,0.33358032 0 0 0 0,-0.03126 z m -0.667078,0.406509 v 5.936092 c -0.318387,-0.01853 -0.599989,-0.06007 -0.833845,-0.130288 V 17.78938 a 0.33357198,0.33358032 0 0 0 0,-0.01563 c 0.25501,-0.13905 0.533181,-0.233889 0.833845,-0.276221 z m -5.336618,0.229312 v 5.232517 a 0.33357198,0.33358032 0 0 0 0,0.005 c -0.295723,0.215886 -0.624599,0.36954 -1.000611,0.442992 v -5.946537 c 0.426698,0.0174 0.74079,0.107439 1.000611,0.265796 z m -1.667688,-0.218887 v 5.946518 c -0.428258,-0.01765 -0.740275,-0.111284 -1.000625,-0.271008 v -5.227311 a 0.33357198,0.33358032 0 0 0 0,-0.005 c 0.29479,-0.2152 0.626085,-0.369257 1.000625,-0.442986 z m -5.503392,0.104231 v 5.513951 a 0.33357198,0.33358032 0 0 0 0,0.02086 c -0.256147,0.140557 -0.531441,0.23438 -0.833851,0.276215 v -5.941298 c 0.32149,0.01847 0.597933,0.05919 0.833851,0.130288 z"
         fill="#000000"
         fill-opacity="1"
         stroke="none"
         marker="none"
         visibility="visible"
         display="inline"
         overflow="visible"
         id="path2" /><path
         style="color:#000000;font-variation-settings:normal;text-indent:0;text-transform:none;direction:ltr;baseline-shift:baseline;opacity:1;vector-effect:none;fill:#9999cc;fill-opacity:1;stroke:none;stroke-width:0.166773;stroke-linecap:butt;stroke-linejoin:miter;stroke-miterlimit:4;stroke-dasharray:none;stroke-dashoffset:0;stroke-opacity:1;-inkscape-stroke:none;enable-background:accumulate;stop-color:#000000;stop-opacity:1"
         d="m 32.906397,25.231806 a 0.33357198,0.33358032 0 0 0 -0.333539,-0.302279 c -1.031268,0.0025 -1.85482,0.505476 -2.485906,1.209108 -0.631084,0.703632 -1.09553,1.608382 -1.485287,2.491177 a 0.33357198,0.33358032 0 0 0 -0.0052,0.0104 c -0.26457,0.649733 -0.602863,1.302863 -1.026675,1.824085 v -3.908752 c 0.126048,0.194657 0.247395,0.418542 0.364812,0.677517 a 0.33357196,0.3335803 0 0 0 0.641019,-0.156352 0.33357196,0.3335803 0 0 0 -0.03127,-0.114656 c -0.272969,-0.602061 -0.581321,-1.115738 -1.031886,-1.480117 -0.450566,-0.364372 -1.037176,-0.555051 -1.777144,-0.552435 -1.022705,0.0038 -1.838644,0.468842 -2.449419,1.115297 -0.608072,0.643599 -1.033395,1.46357 -1.355001,2.251445 -0.0016,0.0038 -0.0037,0.0069 -0.0052,0.0104 -0.376909,0.852395 -0.819192,1.694522 -1.365425,2.303555 -0.05215,0.05818 -0.107736,0.113282 -0.161553,0.166777 v -4.622759 c 0.200677,0.207679 0.371636,0.490721 0.521149,0.891198 a 0.33357196,0.3335803 0 1 0 0.625401,-0.229313 c -0.252913,-0.677423 -0.602003,-1.175367 -1.104858,-1.480116 -0.502839,-0.30475 -1.121752,-0.408445 -1.876152,-0.40651 a 0.33357196,0.3335803 0 0 0 -0.333547,0.33355 v 6.670937 a 0.33357196,0.3335803 0 0 0 0.33875,0.333549 c 1.031294,-0.0025 1.854821,-0.505476 2.485909,-1.209108 0.631088,-0.703632 1.095535,-1.608382 1.485285,-2.491183 a 0.33357196,0.3335803 0 0 0 0.0052,-0.0104 c 0.26457,-0.649726 0.59765,-1.302856 1.021455,-1.824085 v 3.908759 c -0.126048,-0.194663 -0.242172,-0.418542 -0.359597,-0.677517 a 0.33363406,0.33364239 0 0 0 -0.60974,0.271002 c 0.272957,0.602061 0.581322,1.115744 1.031877,1.480116 0.450555,0.364379 1.037181,0.555052 1.777138,0.552436 1.02271,-0.0038 1.838656,-0.468842 2.449432,-1.115297 0.60808,-0.6436 1.033389,-1.46357 1.355002,-2.251439 0.0015,-0.0038 0.0037,-0.0069 0.0052,-0.0104 0.376929,-0.852395 0.819183,-1.694522 1.365422,-2.303555 0.05191,-0.05786 0.102766,-0.113603 0.156347,-0.166777 v 4.622753 C 30.536172,30.835143 30.366761,30.552102 30.21724,30.151625 a 0.33357198,0.33358032 0 1 0 -0.625383,0.229312 c 0.25292,0.677423 0.60721,1.175367 1.110057,1.480116 0.502849,0.30475 1.121764,0.408445 1.876155,0.40651 a 0.33357198,0.33358032 0 0 0 0.328328,-0.333549 v -6.670938 a 0.33357198,0.33358032 0 0 0 0,-0.03126 z m -0.667078,0.406509 v 5.936092 c -0.318387,-0.01853 -0.599989,-0.06007 -0.833845,-0.130288 v -5.513951 a 0.33357198,0.33358032 0 0 0 0,-0.01563 c 0.25501,-0.13905 0.533181,-0.233889 0.833845,-0.276221 z m -5.336618,0.229312 v 5.232517 a 0.33357198,0.33358032 0 0 0 0,0.005 c -0.295723,0.215886 -0.624599,0.36954 -1.000611,0.442992 v -5.946537 c 0.426698,0.0174 0.74079,0.107439 1.000611,0.265796 z M 25.235013,25.64874 v 5.946518 c -0.428258,-0.01765 -0.740275,-0.111284 -1.000625,-0.271008 v -5.227311 a 0.33357198,0.33358032 0 0 0 0,-0.005 c 0.29479,-0.2152 0.626085,-0.369257 1.000625,-0.442986 z m -5.503392,0.104231 v 5.513951 a 0.33357198,0.33358032 0 0 0 0,0.02086 C 19.475474,31.428342 19.20018,31.522165 18.89777,31.564 v -5.941298 c 0.32149,0.01847 0.597933,0.05919 0.833851,0.130288 z"
         fill="#000000"
         fill-opacity="1"
         stroke="none"
         marker="none"
         visibility="visible"
         display="inline"
         overflow="visible"
         id="path3" /><path
         style="fill:none;fill-rule:evenodd;stroke:#000000;stroke-width:0.75;stroke-linecap:butt;stroke-linejoin:miter;stroke-miterlimit:4;stroke-dasharray:none;stroke-opacity:1"
         d="m 16.424075,29.860518 c -0.198729,0.0034 -0.398524,-0.07216 -0.538938,-0.214146 -0.195082,-0.194386 -0.294341,-0.461128 -0.363807,-0.722201 -0.118343,-0.46928 -0.146657,-0.955414 -0.161622,-1.437374 -0.0239,-1.033217 0.0414,-2.06554 0.06237,-3.098227 0.01358,-0.722075 0.01879,-1.447526 -0.07081,-2.165465 -0.05329,-0.394914 -0.131452,-0.794985 -0.315444,-1.152136 -0.121452,-0.235403 -0.309283,-0.449295 -0.561031,-0.546895 -0.123598,-0.04927 -0.257182,-0.07047 -0.389892,-0.07031 m 0,-0.0073 c 0.198728,0.0034 0.398525,-0.07216 0.538938,-0.214146 0.195083,-0.194386 0.294339,-0.461128 0.363807,-0.722199 0.118343,-0.469282 0.146657,-0.955416 0.161623,-1.437376 0.0239,-1.033216 -0.0414,-2.06554 -0.06237,-3.098226 -0.01358,-0.722076 -0.01879,-1.447526 0.07081,-2.165466 0.05329,-0.394914 0.131453,-0.794983 0.315444,-1.152136 0.121452,-0.235402 0.309283,-0.449293 0.561031,-0.546894 0.123598,-0.04927 0.257182,-0.07047 0.389892,-0.07031"
         id="path5147"
         inkscape:connector-curvature="0" /><path
         style="fill:none;fill-rule:evenodd;stroke:#000000;stroke-width:0.75;stroke-linecap:butt;stroke-linejoin:miter;stroke-miterlimit:4;stroke-dasharray:none;stroke-opacity:1"
         d="m 34.722402,29.860518 c 0.198729,0.0034 0.398524,-0.07216 0.538938,-0.214146 0.195082,-0.194386 0.294341,-0.461128 0.363807,-0.722201 0.118343,-0.46928 0.146657,-0.955414 0.161622,-1.437374 0.0239,-1.033217 -0.0414,-2.06554 -0.06237,-3.098227 -0.01358,-0.722075 -0.01879,-1.447526 0.07081,-2.165465 0.05329,-0.394914 0.131452,-0.794985 0.315444,-1.152136 0.121452,-0.235403 0.309283,-0.449295 0.561031,-0.546895 0.123598,-0.04927 0.257182,-0.07047 0.389892,-0.07031 m 0,-0.0073 c -0.198728,0.0034 -0.398525,-0.07216 -0.538938,-0.214146 -0.195083,-0.194386 -0.294339,-0.461128 -0.363807,-0.722199 -0.118343,-0.469282 -0.146657,-0.955416 -0.161623,-1.437376 -0.0239,-1.033216 0.0414,-2.06554 0.06237,-3.098226 0.01358,-0.722076 0.01879,-1.447526 -0.07081,-2.165466 -0.05329,-0.394914 -0.131453,-0.794983 -0.315444,-1.152136 -0.121452,-0.235402 -0.309283,-0.449293 -0.561031,-0.546894 -0.123598,-0.04927 -0.257182,-0.07047 -0.389892,-0.07031"
         id="path4"
         inkscape:connector-curvature="0" /></g></g></svg>
